<?xml version="1.0" encoding="UTF-8" standalone="no"?>
<!-- Created with Inkscape (http://www.inkscape.org/) -->

<svg
   xmlns:dc="http://purl.org/dc/elements/1.1/"
   xmlns:cc="http://creativecommons.org/ns#"
   xmlns:rdf="http://www.w3.org/1999/02/22-rdf-syntax-ns#"
   xmlns:svg="http://www.w3.org/2000/svg"
   xmlns="http://www.w3.org/2000/svg"
   xmlns:sodipodi="http://sodipodi.sourceforge.net/DTD/sodipodi-0.dtd"
   xmlns:inkscape="http://www.inkscape.org/namespaces/inkscape"
   width="210mm"
   height="297mm"
   viewBox="0 0 210 297"
   version="1.1"
   id="svg3830"
   sodipodi:docname="nable-background.svg"
   inkscape:version="0.92.3 (2405546, 2018-03-11)">
  <defs
     id="defs3824" />
  <sodipodi:namedview
     id="base"
     pagecolor="#ffffff"
     bordercolor="#666666"
     borderopacity="1.0"
     inkscape:pageopacity="0.0"
     inkscape:pageshadow="2"
     inkscape:zoom="0.7"
     inkscape:cx="55.112022"
     inkscape:cy="654.78075"
     inkscape:document-units="mm"
     inkscape:current-layer="layer1"
     showgrid="false"
     inkscape:window-width="1590"
     inkscape:window-height="932"
     inkscape:window-x="545"
     inkscape:window-y="315"
     inkscape:window-maximized="0" />
  <metadata
     id="metadata3827">
    <rdf:RDF>
      <cc:Work
         rdf:about="">
        <dc:format>image/svg+xml</dc:format>
        <dc:type
           rdf:resource="http://purl.org/dc/dcmitype/StillImage" />
      </cc:Work>
    </rdf:RDF>
  </metadata>
  <g
     inkscape:label="Layer 1"
     inkscape:groupmode="layer"
     id="layer1">
    <g
       id="g4007"
       transform="translate(54.050595,34.773809)">
      <path
         style="fill:#f9ae21;fill-opacity:1;stroke-width:0.26458332"
         class="st0"
         d="m 145.13185,52.600928 v 1.084792 c -0.55562,-0.05292 -1.11125,-0.07937 -1.69333,-0.07937 -0.55563,0 -1.13771,0 -1.69333,0.05292 v -1.084792 c 0,-0.926042 0.76729,-1.693333 1.69333,-1.666875 0,0 0,0 0.0265,0 0,0 0,0 0.0265,0 0.92604,-0.02646 1.66687,0.767292 1.64041,1.693333 z"
         id="path3832"
         inkscape:connector-curvature="0" />
      <path
         style="fill:#f9ae21;fill-opacity:1;stroke-width:0.26458332"
         class="st0"
         d="m 159.63102,60.141553 -0.79375,0.767291 c -0.71438,-0.873124 -1.50813,-1.666874 -2.35479,-2.407708 l 0.79375,-0.767291 c 0.66146,-0.635 1.71979,-0.635 2.38125,0.02646 l 0.0265,0.02646 c 0.60854,0.661458 0.60854,1.719792 -0.0529,2.354792 z"
         id="path3834"
         inkscape:connector-curvature="0" />
      <path
         style="fill:#f9ae21;fill-opacity:1;stroke-width:0.26458332"
         class="st0"
         d="m 129.99769,89.192803 -0.79375,0.767292 c -0.66146,0.635 -1.7198,0.635 -2.38125,-0.02646 l -0.0265,-0.02646 c -0.635,-0.661458 -0.635,-1.719791 0.0265,-2.38125 l 0.79375,-0.767291 c 0.74083,0.899583 1.53458,1.693333 2.38125,2.434166 z"
         id="path3836"
         inkscape:connector-curvature="0" />
      <path
         style="fill:#f9ae21;fill-opacity:1;stroke-width:0.26458332"
         class="st0"
         d="m 166.21914,74.085095 v 0 c 0,0.9525 -0.79375,1.693334 -1.71979,1.666875 h -1.08479 c 0.0529,-0.555625 0.0794,-1.11125 0.0794,-1.693333 0,-0.582083 0,-1.137708 -0.0529,-1.693334 h 1.08479 c 0.92604,0.02646 1.69334,0.767292 1.69334,1.719792 0,-0.02646 0,-0.02646 0,0 z"
         id="path3838"
         inkscape:connector-curvature="0" />
      <path
         style="fill:#f9ae21;fill-opacity:1;stroke-width:0.26458332"
         class="st0"
         d="m 122.98623,73.661762 c 0,0.555625 0,1.137708 0.0529,1.693333 h -1.08479 c -0.92604,0 -1.69333,-0.767291 -1.66687,-1.693333 0,0 0,0 0,-0.02646 0,0 0,0 0,-0.02646 0,-0.926041 0.79375,-1.666876 1.71979,-1.666876 h 1.08479 c -0.0794,0.582085 -0.10583,1.13771 -0.10583,1.719793 z"
         id="path3840"
         inkscape:connector-curvature="0" />
      <path
         style="fill:#f9ae21;fill-opacity:1;stroke-width:0.26458332"
         class="st0"
         d="m 159.33998,90.224678 c -0.0265,0.02646 -0.0265,0.02646 0,0 -0.68792,0.661459 -1.74625,0.661459 -2.38125,0 l -0.76729,-0.79375 c 0.87312,-0.714375 1.66687,-1.508125 2.4077,-2.354791 l 0.7673,0.79375 c 0.635,0.661458 0.635,1.719791 -0.0265,2.354791 z"
         id="path3842"
         inkscape:connector-curvature="0" />
      <path
         style="fill:#f9ae21;fill-opacity:1;stroke-width:0.26458332"
         class="st0"
         d="m 130.31519,58.236553 c -0.87313,0.714375 -1.66688,1.508125 -2.40771,2.354792 l -0.76729,-0.79375 c -0.635,-0.661459 -0.635,-1.719792 0.0264,-2.38125 l 0.0265,-0.02646 c 0.66146,-0.635 1.71979,-0.635 2.38125,0.02646 z"
         id="path3844"
         inkscape:connector-curvature="0" />
      <g
         style="fill:#f9ae21;fill-opacity:1"
         id="g3878"
         transform="matrix(0.26458333,0,0,0.26458333,116.55685,48.76447)">
        <path
           class="st0"
           d="m 112.4,94.9 c 0,-6.3 -5.1,-11.5 -11.4,-11.6 -6.3,0 -11.5,5.1 -11.6,11.4 -0.1,6.3 5,11.5 11.4,11.6 6.3,0 11.5,-5.1 11.6,-11.4 z"
           id="path3846"
           inkscape:connector-curvature="0"
           style="fill:#f9ae21;fill-opacity:1" />
        <path
           class="st0"
           d="m 131.6,55.7 c -6.8,-5.4 -14.9,-9 -23.9,-10.2 l -0.3,30 c 1,0.3 1.9,0.7 2.8,1.2 z"
           id="path3848"
           inkscape:connector-curvature="0"
           style="fill:#f9ae21;fill-opacity:1" />
        <path
           class="st0"
           d="m 109.8,113.1 c -0.9,0.4 -1.8,0.8 -2.8,1.1 l -0.3,30 c 9,-1 17.3,-4.5 24.1,-9.7 z"
           id="path3850"
           inkscape:connector-curvature="0"
           style="fill:#f9ae21;fill-opacity:1" />
        <path
           class="st0"
           d="m 94.3,114.1 c -1,-0.3 -1.9,-0.7 -2.8,-1.2 l -21.4,21 c 6.8,5.4 14.9,9 23.9,10.2 z"
           id="path3852"
           inkscape:connector-curvature="0"
           style="fill:#f9ae21;fill-opacity:1" />
        <path
           class="st0"
           d="m 51.5,87.9 30,0.3 c 0.3,-1 0.7,-1.9 1.2,-2.8 L 61.7,64 c -5.3,6.8 -8.9,15 -10.2,23.9 z"
           id="path3854"
           inkscape:connector-curvature="0"
           style="fill:#f9ae21;fill-opacity:1" />
        <path
           class="st0"
           d="m 61.1,124.8 21.4,-21 C 82.1,102.9 81.7,102 81.4,101 l -30,-0.3 c 1.1,9 4.5,17.2 9.7,24.1 z"
           id="path3856"
           inkscape:connector-curvature="0"
           style="fill:#f9ae21;fill-opacity:1" />
        <path
           class="st0"
           d="m 150.2,101.7 -30,-0.3 c -0.3,1 -0.7,1.9 -1.2,2.8 l 21,21.4 c 5.3,-6.8 8.9,-15 10.2,-23.9 z"
           id="path3858"
           inkscape:connector-curvature="0"
           style="fill:#f9ae21;fill-opacity:1" />
        <path
           class="st0"
           d="m 94.7,75.4 0.3,-30 c -9,1 -17.3,4.5 -24.1,9.7 l 21,21.4 c 0.9,-0.4 1.8,-0.8 2.8,-1.1 z"
           id="path3860"
           inkscape:connector-curvature="0"
           style="fill:#f9ae21;fill-opacity:1" />
        <path
           class="st0"
           d="M 95,33.8 95.2,18.4 C 78.9,19.6 63.9,25.9 52,35.8 l 10.7,11 c 9,-7.2 20.2,-11.9 32.3,-13 z"
           id="path3862"
           inkscape:connector-curvature="0"
           style="fill:#f9ae21;fill-opacity:1" />
        <path
           class="st0"
           d="m 39.9,100.6 -15.4,-0.2 c -0.2,-2.1 -0.2,-4.2 -0.2,-6.3 0,0 0,0 0,0 0,2.1 0,4.3 0.2,6.4 1.2,16.4 7.5,31.3 17.4,43.2 l 11,-10.8 c -7.2,-9 -11.9,-20.2 -13,-32.3 z"
           id="path3864"
           inkscape:connector-curvature="0"
           style="fill:#f9ae21;fill-opacity:1" />
        <path
           class="st0"
           d="m 140.6,64.8 -21.4,21 c 0.4,0.9 0.8,1.8 1.1,2.8 l 30,0.3 c -1.1,-9 -4.5,-17.2 -9.7,-24.1 z"
           id="path3866"
           inkscape:connector-curvature="0"
           style="fill:#f9ae21;fill-opacity:1" />
        <path
           class="st0"
           d="M 40,87.8 C 41.3,75.7 46.3,64.7 53.7,55.7 L 42.9,44.7 C 32.7,56.5 26.1,71.2 24.6,87.6 Z"
           id="path3868"
           inkscape:connector-curvature="0"
           style="fill:#f9ae21;fill-opacity:1" />
        <path
           class="st0"
           d="m 177.4,95.5 c 0,2.2 -0.1,4.3 -0.3,6.4 l -15.4,-0.2 c -1.4,12.2 -6.3,23.2 -13.7,32.1 l 10.8,11 c -2.8,3.2 -5.8,6.2 -9.1,8.9 l -10.8,-11 c -10.6,8.4 -24.1,13.4 -38.7,13.3 -14.6,-0.1 -28,-5.4 -38.4,-14 l -11,10.8 c 13.2,11.4 30.4,18.4 49.3,18.6 l -0.3,25.5 50.6,-43.7 c 3,-2.6 5.8,-5.3 8.4,-8.3 10.1,-11.7 16.8,-26.6 18.3,-42.9 0.2,-2.1 0.3,-4.2 0.3,-6.5 0,-0.5 0,-1 0,-1.6 0,0.6 0,1.1 0,1.6 z"
           id="path3870"
           inkscape:connector-curvature="0"
           style="fill:#f9ae21;fill-opacity:1" />
        <path
           class="st0"
           d="M 177.2,89.2 C 176,72.8 169.7,57.9 159.8,46 c 0,0 0,0 0,-0.1 l -11,10.8 c 7.2,9 11.9,20.2 13,32.3 z"
           id="path3872"
           inkscape:connector-curvature="0"
           style="fill:#f9ae21;fill-opacity:1" />
        <path
           class="st0"
           d="m 101.6,18.2 c -1,0 -2.1,0 -3.2,0 1.1,0 2.1,0 3.2,0 z"
           id="path3874"
           inkscape:connector-curvature="0"
           style="fill:#f9ae21;fill-opacity:1" />
        <path
           class="st0"
           d="m 107.8,33.9 c 12.2,1.4 23.2,6.3 32.1,13.7 L 150.8,36.9 C 139.2,26.7 124.3,20 108,18.5 c -1,-0.1 -2.1,-0.2 -3.2,-0.2 1.1,0.1 2.1,0.1 3.2,0.2 z"
           id="path3876"
           inkscape:connector-curvature="0"
           style="fill:#f9ae21;fill-opacity:1" />
      </g>
    </g>
  </g>
</svg>
