<?xml version="1.0" encoding="utf-8"?>
<!-- Generator: Adobe Illustrator 23.0.1, SVG Export Plug-In . SVG Version: 6.00 Build 0)  -->
<svg version="1.1" id="Laag_1" xmlns="http://www.w3.org/2000/svg" xmlns:xlink="http://www.w3.org/1999/xlink" x="0px" y="0px"
	 viewBox="0 0 566.9 204.9" style="enable-background:new 0 0 566.9 204.9;" xml:space="preserve">
<style type="text/css">
	.st0{fill:#F9AE21;}
	.st1{fill:#343434;}
	.st2{fill:#5C5B5B;}
</style>
<path class="st0" d="M108,14.5v4.1c-2.1-0.2-4.2-0.3-6.4-0.3c-2.1,0-4.3,0-6.4,0.2v-4.1c0-3.5,2.9-6.4,6.4-6.3c0,0,0,0,0.1,0
	c0,0,0,0,0.1,0C105.3,8,108.1,11,108,14.5z"/>
<path class="st0" d="M162.8,43l-3,2.9c-2.7-3.3-5.7-6.3-8.9-9.1l3-2.9c2.5-2.4,6.5-2.4,9,0.1l0.1,0.1
	C165.3,36.6,165.3,40.6,162.8,43z"/>
<path class="st0" d="M50.8,152.8l-3,2.9c-2.5,2.4-6.5,2.4-9-0.1l-0.1-0.1c-2.4-2.5-2.4-6.5,0.1-9l3-2.9
	C44.6,147,47.6,150,50.8,152.8z"/>
<path class="st0" d="M187.7,95.7L187.7,95.7c0,3.6-3,6.4-6.5,6.3h-4.1c0.2-2.1,0.3-4.2,0.3-6.4s0-4.3-0.2-6.4h4.1
	C184.8,89.3,187.7,92.1,187.7,95.7C187.7,95.6,187.7,95.6,187.7,95.7z"/>
<path class="st0" d="M24.3,94.1c0,2.1,0,4.3,0.2,6.4h-4.1c-3.5,0-6.4-2.9-6.3-6.4c0,0,0,0,0-0.1c0,0,0,0,0-0.1c0-3.5,3-6.3,6.5-6.3
	h4.1C24.4,89.8,24.3,91.9,24.3,94.1z"/>
<path class="st0" d="M161.7,156.7C161.6,156.8,161.6,156.8,161.7,156.7c-2.6,2.5-6.6,2.5-9,0l-2.9-3c3.3-2.7,6.3-5.7,9.1-8.9l2.9,3
	C164.2,150.3,164.2,154.3,161.7,156.7z"/>
<path class="st0" d="M52,35.8c-3.3,2.7-6.3,5.7-9.1,8.9l-2.9-3c-2.4-2.5-2.4-6.5,0.1-9l0.1-0.1c2.5-2.4,6.5-2.4,9,0.1L52,35.8z"/>
<g>
	<path class="st0" d="M112.4,94.9c0-6.3-5.1-11.5-11.4-11.6c-6.3,0-11.5,5.1-11.6,11.4c-0.1,6.3,5,11.5,11.4,11.6
		C107.1,106.3,112.3,101.2,112.4,94.9z"/>
	<path class="st0" d="M131.6,55.7c-6.8-5.4-14.9-9-23.9-10.2l-0.3,30c1,0.3,1.9,0.7,2.8,1.2L131.6,55.7z"/>
	<path class="st0" d="M109.8,113.1c-0.9,0.4-1.8,0.8-2.8,1.1l-0.3,30c9-1,17.3-4.5,24.1-9.7L109.8,113.1z"/>
	<path class="st0" d="M94.3,114.1c-1-0.3-1.9-0.7-2.8-1.2l-21.4,21c6.8,5.4,14.9,9,23.9,10.2L94.3,114.1z"/>
	<path class="st0" d="M51.5,87.9l30,0.3c0.3-1,0.7-1.9,1.2-2.8L61.7,64C56.4,70.8,52.8,79,51.5,87.9z"/>
	<path class="st0" d="M61.1,124.8l21.4-21c-0.4-0.9-0.8-1.8-1.1-2.8l-30-0.3C52.5,109.7,55.9,117.9,61.1,124.8z"/>
	<path class="st0" d="M150.2,101.7l-30-0.3c-0.3,1-0.7,1.9-1.2,2.8l21,21.4C145.3,118.8,148.9,110.6,150.2,101.7z"/>
	<path class="st0" d="M94.7,75.4l0.3-30c-9,1-17.3,4.5-24.1,9.7l21,21.4C92.8,76.1,93.7,75.7,94.7,75.4z"/>
	<path class="st0" d="M95,33.8l0.2-15.4C78.9,19.6,63.9,25.9,52,35.8l10.7,11C71.7,39.6,82.9,34.9,95,33.8z"/>
	<path class="st0" d="M39.9,100.6l-15.4-0.2c-0.2-2.1-0.2-4.2-0.2-6.3c0,0,0,0,0,0c0,2.1,0,4.3,0.2,6.4c1.2,16.4,7.5,31.3,17.4,43.2
		l11-10.8C45.7,123.9,41,112.7,39.9,100.6z"/>
	<path class="st0" d="M140.6,64.8l-21.4,21c0.4,0.9,0.8,1.8,1.1,2.8l30,0.3C149.2,79.9,145.8,71.7,140.6,64.8z"/>
	<path class="st0" d="M40,87.8c1.3-12.1,6.3-23.1,13.7-32.1l-10.8-11C32.7,56.5,26.1,71.2,24.6,87.6L40,87.8z"/>
	<path class="st0" d="M177.4,95.5c0,2.2-0.1,4.3-0.3,6.4l-15.4-0.2c-1.4,12.2-6.3,23.2-13.7,32.1l10.8,11c-2.8,3.2-5.8,6.2-9.1,8.9
		l-10.8-11c-10.6,8.4-24.1,13.4-38.7,13.3c-14.6-0.1-28-5.4-38.4-14l-11,10.8c13.2,11.4,30.4,18.4,49.3,18.6l-0.3,25.5l50.6-43.7
		c3-2.6,5.8-5.3,8.4-8.3c10.1-11.7,16.8-26.6,18.3-42.9C177.3,99.9,177.4,97.8,177.4,95.5c0-0.5,0-1,0-1.6
		C177.4,94.5,177.4,95,177.4,95.5z"/>
	<path class="st0" d="M177.2,89.2c-1.2-16.4-7.5-31.3-17.4-43.2c0,0,0,0,0-0.1l-11,10.8c7.2,9,11.9,20.2,13,32.3L177.2,89.2z"/>
	<path class="st0" d="M101.6,18.2c-1,0-2.1,0-3.2,0C99.5,18.2,100.5,18.2,101.6,18.2L101.6,18.2z"/>
	<path class="st0" d="M107.8,33.9c12.2,1.4,23.2,6.3,32.1,13.7l10.9-10.7C139.2,26.7,124.3,20,108,18.5c-1-0.1-2.1-0.2-3.2-0.2
		c1.1,0.1,2.1,0.1,3.2,0.2L107.8,33.9z"/>
</g>
<path class="st1" d="M263.8,70c-2.3-2.4-5-4.3-8.2-5.6c-3.2-1.3-6.9-2-10.8-2c-5.6,0-10.5,1.2-14.3,3.9c-1.5,1.1-2.9,2.2-4.1,3.5
	v-6.1h-14.1v66.1h14.1v-2.5v-35c0-2.6,0.4-4.9,1.2-6.9c0.8-2.1,1.9-3.8,3.3-5.2c1.4-1.4,3.1-2.5,5-3.3s4-1.2,6.3-1.2
	c2.5,0,4.6,0.4,6.3,1.1s3.2,1.7,4.4,3.1s2.1,3,2.8,5c0.6,2,1,4.2,1,6.9V130h14.1V89.4c0-3.9-0.6-7.5-1.7-10.8
	C267.8,75.3,266.1,72.4,263.8,70z"/>
<polygon class="st1" points="279.1,99.1 281.6,99.1 317,99.1 317,84.5 279.1,84.5 "/>
<path class="st1" d="M372.8,69.7c-2.5-2.3-5.6-4.1-9.1-5.2s-7.5-1.7-11.9-1.7c-4.7,0-8.9,0.5-12.6,1.4c-3.6,0.9-7.2,2.2-10.7,3.9
	l-2.1,1l4.4,12.2l2.5-1.2c2.7-1.3,5.5-2.3,8.3-3.1c2.7-0.8,5.8-1.2,9.2-1.2c2.7,0,5,0.3,6.9,0.9s3.5,1.5,4.9,2.6
	c1.3,1.1,2.2,2.5,2.9,4.2c0.6,1.5,0.9,3.2,1,5.3c-1.8-0.4-3.7-0.8-5.6-1.1c-3.1-0.5-6.6-0.7-10.7-0.7s-7.8,0.5-11.2,1.4
	c-3.4,0.9-6.5,2.3-9.1,4.2c-2.6,1.9-4.7,4.3-6.2,7.1c-1.5,2.9-2.2,6.2-2.2,9.7c0,3.6,0.7,6.8,2.3,9.6c1.5,2.7,3.5,5,5.9,6.8
	s5.1,3.1,8.1,4c2.9,0.9,6,1.3,9,1.3c5.8,0,10.7-1.1,14.8-3.5c1.8-1,3.4-2.2,4.8-3.4v5.6h13.7V90c0-4.3-0.6-8.1-1.8-11.5
	C377.3,75,375.4,72.1,372.8,69.7z M339.6,101.8c2.4-1.8,6.3-2.9,11.7-2.9c3.7,0,6.9,0.3,9.6,0.8c2.1,0.4,4.1,0.8,5.8,1.3v4
	c0,2.1-0.4,3.9-1.3,5.5c-0.9,1.7-2.1,3.2-3.7,4.4c-1.6,1.3-3.5,2.3-5.7,3s-4.6,1.1-7.2,1.1c-1.8,0-3.5-0.2-5.1-0.7s-2.9-1.2-4.1-2
	c-1.2-0.9-2-1.9-2.7-3.1l0,0c-0.6-1.1-0.9-2.4-0.9-4c0-1.7,0.3-3,0.9-4.2C337.5,103.8,338.4,102.7,339.6,101.8l-1.5-2L339.6,101.8z"
	/>
<path class="st1" d="M455.3,82.3c-1.8-4.2-4.2-7.8-7.2-10.8c-3-2.9-6.4-5.2-10.2-6.7c-3.8-1.5-7.7-2.3-11.6-2.3
	c-3.1,0-5.9,0.4-8.5,1.2c-2.5,0.8-4.8,1.9-6.9,3.2c-2,1.3-3.9,2.9-5.5,4.6v-33h-14.1v91.3h14.1v-7.3c1.6,1.6,3.4,3.1,5.4,4.3
	c2.1,1.3,4.4,2.3,7,3.1s5.5,1.2,8.5,1.2c4,0,8-0.8,11.8-2.4c3.8-1.6,7.2-3.9,10.2-6.8c3-3,5.3-6.6,7.1-10.8l0,0l0,0l0,0l0,0
	c1.8-4.3,2.7-9.1,2.7-14.4C458,91.4,457.1,86.6,455.3,82.3z M443.7,96.8c0,3.4-0.5,6.4-1.5,9c-1,2.7-2.4,4.9-4.1,6.6
	c-1.7,1.8-3.7,3.1-6,4s-4.8,1.4-7.4,1.4c-2.5,0-4.9-0.5-7.2-1.5c-2.4-1-4.5-2.4-6.3-4.3c-1.8-1.8-3.3-4-4.4-6.7
	c-1.1-2.6-1.6-5.5-1.6-8.8c0-3.2,0.6-6.1,1.6-8.7c1.1-2.6,2.6-4.8,4.4-6.6c1.9-1.8,4-3.2,6.3-4.3c2.3-1,4.7-1.5,7.2-1.5
	c2.6,0,5,0.5,7.3,1.5s4.3,2.3,6,4.2c1.7,1.8,3.1,4,4.2,6.7C443.2,90.5,443.7,93.5,443.7,96.8z"/>
<polygon class="st1" points="467.1,129.8 469.6,129.8 481.2,129.8 481.2,38.5 467.1,38.5 "/>
<path class="st1" d="M550.9,83.9c-1.4-4.2-3.4-8-6-11.1c-2.7-3.2-6-5.7-9.8-7.6c-3.9-1.9-8.3-2.8-13.1-2.8c-4.6,0-8.9,0.9-12.8,2.7
	c-3.9,1.8-7.3,4.3-10.1,7.4c-2.8,3.1-5,6.8-6.6,11s-2.3,8.7-2.3,13.4c0,5,0.9,9.7,2.6,14c1.7,4.2,4.1,7.9,7.2,10.9
	c3,3,6.5,5.4,10.5,7.1c4,1.7,8.3,2.5,12.8,2.5c6.1,0,11.4-1.1,15.8-3.4c4.2-2.2,8-5.2,11.2-8.9l1.6-1.9l-9.3-8.3l-1.7,1.7
	c-2.4,2.4-4.9,4.3-7.7,5.8c-2.6,1.4-5.8,2.1-9.8,2.1c-2.4,0-4.7-0.4-6.8-1.2c-2.2-0.8-4.1-2-5.8-3.5c-1.7-1.6-3.1-3.4-4.3-5.8
	l-2.2,1.1l2.2-1.1c-0.8-1.6-1.3-3.3-1.7-5.2h47.7l0.3-2.1c0.1-0.6,0.1-1.3,0.1-1.9c0-0.5,0-0.9,0-1.3
	C552.9,92.6,552.2,88.1,550.9,83.9z M521.6,75.1c2.8,0,5,0.5,7,1.5s3.7,2.3,5.1,3.9c1.4,1.7,2.5,3.6,3.3,5.9c0.5,1.5,0.9,3,1.2,4.6
	h-33.4c0.3-1.7,0.8-3.3,1.5-4.8c1-2.3,2.3-4.2,3.8-5.9c1.5-1.6,3.2-2.9,5.2-3.8C517.2,75.5,519.3,75.1,521.6,75.1z"/>
<path class="st2" d="M225.6,161.2c-0.5,0.3-0.9,0.6-1.5,0.9c-0.5,0.2-1.1,0.4-1.7,0.6c-0.6,0.1-1.3,0.2-2,0.2
	c-1.2,0-2.3-0.2-3.3-0.6c-1-0.4-1.8-1-2.6-1.8c-0.7-0.8-1.3-1.6-1.7-2.7c-0.4-1-0.6-2.1-0.6-3.3s0.2-2.2,0.6-3.3
	c0.4-1,1-1.9,1.7-2.7s1.6-1.4,2.6-1.8c1-0.4,2.1-0.7,3.3-0.7c0.7,0,1.4,0.1,2,0.2c0.6,0.1,1.2,0.3,1.7,0.5s1,0.5,1.4,0.8
	s0.8,0.7,1.2,1.1l-1.2,1.3c-0.7-0.7-1.4-1.2-2.2-1.6c-0.8-0.4-1.8-0.6-2.9-0.6c-0.9,0-1.7,0.2-2.5,0.5s-1.4,0.8-2,1.4
	c-0.6,0.6-1,1.3-1.3,2.1s-0.5,1.7-0.5,2.6s0.2,1.8,0.5,2.6s0.8,1.5,1.3,2.1c0.6,0.6,1.2,1.1,2,1.4c0.8,0.3,1.6,0.5,2.5,0.5
	c1.1,0,2.1-0.2,2.9-0.6s1.6-1,2.4-1.7l1.2,1.2C226.5,160.5,226,160.9,225.6,161.2z"/>
<path class="st2" d="M230,162.6v-16.9h1.8v16.9H230z"/>
<path class="st2" d="M247.2,159.1c-0.3,0.8-0.8,1.4-1.3,2c-0.6,0.6-1.2,1-2,1.4c-0.8,0.3-1.6,0.5-2.5,0.5s-1.7-0.2-2.5-0.5
	s-1.4-0.8-2-1.3c-0.6-0.6-1-1.2-1.3-2s-0.5-1.6-0.5-2.4c0-0.8,0.2-1.7,0.5-2.4c0.3-0.8,0.7-1.4,1.3-2s1.2-1,2-1.4
	c0.8-0.3,1.6-0.5,2.5-0.5s1.7,0.2,2.5,0.5s1.4,0.8,2,1.3c0.6,0.6,1,1.2,1.3,2s0.5,1.6,0.5,2.4S247.5,158.3,247.2,159.1z
	 M245.5,154.8c-0.2-0.6-0.5-1.1-0.9-1.5s-0.9-0.8-1.4-1s-1.1-0.4-1.8-0.4c-0.6,0-1.2,0.1-1.8,0.4c-0.5,0.2-1,0.6-1.4,1
	s-0.7,0.9-0.9,1.5s-0.3,1.2-0.3,1.8s0.1,1.3,0.3,1.8c0.2,0.6,0.5,1.1,0.9,1.5s0.9,0.7,1.4,1c0.5,0.2,1.1,0.4,1.8,0.4
	c0.6,0,1.2-0.1,1.8-0.4c0.5-0.2,1-0.6,1.4-1s0.7-0.9,0.9-1.5s0.3-1.2,0.3-1.8S245.7,155.4,245.5,154.8z"/>
<path class="st2" d="M259.4,150.7h1.8v12h-1.8v-2.1c-0.4,0.6-0.9,1.2-1.6,1.7c-0.6,0.5-1.5,0.7-2.5,0.7c-0.7,0-1.4-0.1-1.9-0.3
	c-0.6-0.2-1-0.6-1.4-1s-0.7-0.9-0.9-1.5s-0.3-1.2-0.3-1.9v-7.5h1.8v7c0,1.1,0.3,2,0.9,2.6c0.6,0.6,1.4,1,2.5,1c0.5,0,1-0.1,1.4-0.3
	s0.8-0.4,1.1-0.8c0.3-0.3,0.6-0.7,0.8-1.2c0.2-0.5,0.3-1,0.3-1.5v-6.9H259.4z"/>
<path class="st2" d="M274.8,162.6v-2.4c-0.2,0.4-0.5,0.7-0.8,1s-0.6,0.6-1,0.9c-0.4,0.2-0.8,0.4-1.2,0.6c-0.5,0.1-1,0.2-1.5,0.2
	c-0.7,0-1.4-0.1-2.1-0.4c-0.7-0.3-1.3-0.7-1.8-1.2s-1-1.2-1.3-2s-0.5-1.7-0.5-2.6s0.2-1.9,0.5-2.6c0.3-0.8,0.8-1.4,1.3-2
	c0.5-0.5,1.2-0.9,1.8-1.2c0.7-0.3,1.4-0.4,2.1-0.4c0.6,0,1.1,0.1,1.5,0.2c0.5,0.1,0.9,0.3,1.3,0.6c0.4,0.2,0.7,0.5,1,0.8
	s0.6,0.6,0.8,1v-7.2h1.8v16.9h-1.9V162.6z M274.5,154.7c-0.2-0.6-0.6-1.1-1-1.5s-0.9-0.7-1.4-0.9s-1.1-0.3-1.6-0.3
	c-0.6,0-1.1,0.1-1.6,0.3s-1,0.5-1.3,0.9c-0.4,0.4-0.7,0.9-0.9,1.5c-0.2,0.6-0.3,1.2-0.3,2c0,0.7,0.1,1.3,0.3,1.9
	c0.2,0.6,0.5,1.1,0.9,1.5s0.8,0.7,1.3,0.9s1.1,0.3,1.6,0.3c0.6,0,1.1-0.1,1.6-0.3s1-0.5,1.4-0.9s0.7-0.9,1-1.5
	c0.2-0.6,0.4-1.2,0.4-1.9S274.8,155.3,274.5,154.7z"/>
<path class="st2" d="M300.5,161.2c-0.5,0.3-0.9,0.6-1.5,0.9c-0.5,0.2-1.1,0.4-1.7,0.6c-0.6,0.1-1.3,0.2-2,0.2
	c-1.2,0-2.3-0.2-3.2-0.6c-1-0.4-1.9-1-2.6-1.8s-1.3-1.6-1.7-2.7c-0.4-1-0.6-2.1-0.6-3.3s0.2-2.2,0.6-3.3c0.4-1,1-1.9,1.7-2.7
	s1.6-1.4,2.6-1.8c1-0.4,2.1-0.7,3.3-0.7c0.7,0,1.4,0.1,2,0.2c0.6,0.1,1.1,0.3,1.7,0.5c0.5,0.2,1,0.5,1.4,0.8s0.9,0.7,1.3,1.1
	l-1.3,1.3c-0.7-0.7-1.4-1.2-2.2-1.6c-0.8-0.4-1.8-0.6-2.9-0.6c-0.9,0-1.7,0.2-2.5,0.5s-1.4,0.8-2,1.4c-0.6,0.6-1,1.3-1.3,2.1
	s-0.5,1.7-0.5,2.6s0.2,1.8,0.5,2.6s0.8,1.5,1.3,2.1c0.6,0.6,1.2,1.1,2,1.4c0.8,0.3,1.6,0.5,2.5,0.5c1.1,0,2.1-0.2,2.9-0.6
	c0.8-0.4,1.6-1,2.4-1.7l1.2,1.2C301.4,160.5,300.9,160.9,300.5,161.2z"/>
<path class="st2" d="M315.7,159.1c-0.3,0.8-0.8,1.4-1.3,2c-0.6,0.6-1.2,1-2,1.4c-0.8,0.3-1.6,0.5-2.5,0.5s-1.7-0.2-2.5-0.5
	s-1.4-0.8-2-1.3c-0.6-0.6-1-1.2-1.3-2s-0.5-1.6-0.5-2.4c0-0.8,0.2-1.7,0.5-2.4c0.3-0.8,0.7-1.4,1.3-2c0.6-0.6,1.2-1,2-1.4
	c0.8-0.3,1.6-0.5,2.5-0.5s1.7,0.2,2.5,0.5s1.4,0.8,2,1.3c0.6,0.6,1,1.2,1.3,2s0.5,1.6,0.5,2.4S316.1,158.3,315.7,159.1z
	 M314.1,154.8c-0.2-0.6-0.5-1.1-0.9-1.5s-0.9-0.8-1.4-1s-1.1-0.4-1.8-0.4c-0.6,0-1.2,0.1-1.8,0.4c-0.5,0.2-1,0.6-1.4,1
	s-0.7,0.9-0.9,1.5c-0.2,0.6-0.3,1.2-0.3,1.8s0.1,1.3,0.3,1.8c0.2,0.6,0.5,1.1,0.9,1.5s0.9,0.7,1.4,1c0.5,0.2,1.1,0.4,1.8,0.4
	c0.6,0,1.2-0.1,1.8-0.4c0.5-0.2,1-0.6,1.4-1s0.7-0.9,0.9-1.5c0.2-0.6,0.3-1.2,0.3-1.8S314.3,155.4,314.1,154.8z"/>
<path class="st2" d="M321.2,162.6h-1.8v-12h1.8v2.1c0.4-0.6,0.9-1.2,1.6-1.7c0.6-0.5,1.5-0.7,2.5-0.7c0.7,0,1.4,0.1,1.9,0.3
	c0.6,0.2,1,0.6,1.4,1s0.7,0.9,0.9,1.5c0.2,0.6,0.3,1.2,0.3,2v7.4H328v-7c0-1.1-0.3-2-0.9-2.6s-1.4-1-2.5-1c-0.5,0-1,0.1-1.4,0.3
	s-0.8,0.4-1.1,0.8c-0.3,0.3-0.6,0.7-0.8,1.2c-0.2,0.5-0.3,1-0.3,1.5v6.9H321.2z"/>
<path class="st2" d="M341.6,160.8c-0.2,0.4-0.5,0.8-0.9,1.1s-0.8,0.5-1.3,0.7s-1.1,0.2-1.7,0.2c-0.9,0-1.7-0.2-2.6-0.5
	s-1.7-0.7-2.3-1.3l0.9-1.3c0.6,0.5,1.3,0.9,2,1.1c0.7,0.3,1.4,0.4,2.1,0.4s1.3-0.2,1.8-0.5s0.7-0.8,0.7-1.4l0,0
	c0-0.3-0.1-0.5-0.2-0.8c-0.2-0.2-0.4-0.4-0.7-0.6c-0.3-0.2-0.6-0.3-1-0.4c-0.4-0.1-0.7-0.2-1.1-0.3c-0.5-0.1-0.9-0.3-1.4-0.5
	s-0.9-0.4-1.3-0.6c-0.4-0.2-0.7-0.6-0.9-0.9c-0.2-0.4-0.4-0.8-0.4-1.4l0,0c0-0.5,0.1-1,0.3-1.4c0.2-0.4,0.5-0.8,0.8-1.1
	s0.8-0.5,1.3-0.7s1-0.2,1.6-0.2c0.7,0,1.5,0.1,2.2,0.4c0.8,0.2,1.4,0.6,2.1,1l-0.8,1.3c-0.6-0.4-1.1-0.6-1.8-0.8
	c-0.6-0.2-1.2-0.3-1.8-0.3c-0.7,0-1.3,0.2-1.7,0.5c-0.4,0.3-0.6,0.7-0.6,1.2l0,0c0,0.3,0.1,0.5,0.3,0.7c0.2,0.2,0.4,0.4,0.7,0.5
	s0.6,0.3,1,0.4c0.4,0.1,0.8,0.2,1.2,0.4c0.5,0.1,0.9,0.3,1.4,0.5s0.9,0.4,1.2,0.6c0.4,0.3,0.7,0.6,0.9,0.9c0.2,0.4,0.3,0.8,0.3,1.4
	l0,0C342,159.9,341.9,160.4,341.6,160.8z"/>
<path class="st2" d="M353.8,150.7h1.8v12h-1.8v-2.1c-0.4,0.6-0.9,1.2-1.6,1.7c-0.6,0.5-1.5,0.7-2.5,0.7c-0.7,0-1.4-0.1-1.9-0.3
	c-0.6-0.2-1-0.6-1.4-1s-0.7-0.9-0.9-1.5c-0.2-0.6-0.3-1.2-0.3-1.9v-7.5h1.8v7c0,1.1,0.3,2,0.9,2.6s1.4,1,2.5,1c0.5,0,1-0.1,1.4-0.3
	s0.8-0.4,1.1-0.8c0.3-0.3,0.6-0.7,0.8-1.2c0.2-0.5,0.3-1,0.3-1.5v-6.9H353.8z"/>
<path class="st2" d="M359.8,162.6v-16.9h1.8v16.9H359.8z"/>
<path class="st2" d="M368.1,159.2c0,0.7,0.2,1.3,0.6,1.6s0.9,0.4,1.5,0.4c0.3,0,0.6,0,0.9-0.1s0.6-0.2,0.9-0.3v1.5
	c-0.3,0.2-0.6,0.3-1,0.4c-0.3,0.1-0.7,0.1-1.2,0.1s-0.9-0.1-1.3-0.2c-0.4-0.1-0.8-0.3-1.1-0.6c-0.3-0.3-0.5-0.6-0.7-1.1
	c-0.2-0.4-0.3-1-0.3-1.6v-7.2h-1.7v-1.6h1.7V147h1.8v3.6h3.8v1.6h-3.8L368.1,159.2L368.1,159.2z"/>
<path class="st2" d="M377.5,152.3c-0.6,0.2-1.1,0.4-1.7,0.6l-0.5-1.5c0.7-0.3,1.3-0.6,2-0.7c0.7-0.2,1.5-0.3,2.3-0.3
	c1.6,0,2.9,0.4,3.8,1.2s1.3,2,1.3,3.6v7.3H383v-1.8c-0.4,0.5-1,1-1.7,1.4s-1.6,0.6-2.7,0.6c-0.6,0-1.1-0.1-1.6-0.2
	c-0.5-0.2-1-0.4-1.4-0.7s-0.8-0.7-1-1.2c-0.3-0.5-0.4-1-0.4-1.6s0.1-1.2,0.4-1.7c0.2-0.5,0.6-0.9,1.1-1.2s1-0.6,1.6-0.7
	c0.6-0.2,1.3-0.3,2.1-0.3c0.8,0,1.4,0,2,0.1s1.1,0.2,1.7,0.4v-0.4c0-1.1-0.3-1.9-0.9-2.4s-1.5-0.8-2.6-0.8
	C378.7,152.1,378.1,152.1,377.5,152.3z M376.9,157.2c-0.6,0.4-0.9,1.1-0.9,1.8c0,0.4,0.1,0.7,0.2,1c0.2,0.3,0.4,0.5,0.7,0.8
	c0.3,0.2,0.6,0.4,1,0.5s0.7,0.2,1.1,0.2c0.6,0,1.1-0.1,1.6-0.2c0.5-0.2,0.9-0.4,1.3-0.7s0.6-0.6,0.9-1c0.2-0.4,0.3-0.8,0.3-1.3v-1.2
	c-0.4-0.1-1-0.2-1.5-0.3c-0.6-0.1-1.2-0.2-2-0.2C378.4,156.6,377.5,156.8,376.9,157.2z"/>
<path class="st2" d="M390.3,162.6h-1.8v-12h1.8v2.1c0.4-0.6,0.9-1.2,1.6-1.7s1.5-0.7,2.5-0.7c0.7,0,1.4,0.1,1.9,0.3s1,0.6,1.4,1
	s0.7,0.9,0.9,1.5c0.2,0.6,0.3,1.2,0.3,2v7.4h-1.8v-7c0-1.1-0.3-2-0.9-2.6s-1.4-1-2.5-1c-0.5,0-1,0.1-1.4,0.3s-0.8,0.4-1.1,0.8
	c-0.3,0.3-0.6,0.7-0.8,1.2c-0.2,0.5-0.3,1-0.3,1.5v6.9H390.3z"/>
<path class="st2" d="M411.1,162.3c-0.8,0.4-1.7,0.7-2.8,0.7c-0.9,0-1.7-0.2-2.4-0.5c-0.8-0.3-1.4-0.8-1.9-1.3c-0.6-0.6-1-1.2-1.3-2
	s-0.5-1.6-0.5-2.4c0-0.8,0.2-1.7,0.5-2.4c0.3-0.8,0.7-1.4,1.3-2c0.5-0.6,1.2-1,1.9-1.4c0.7-0.3,1.6-0.5,2.4-0.5
	c0.6,0,1.1,0.1,1.6,0.2c0.5,0.1,0.9,0.3,1.3,0.5s0.7,0.4,1.1,0.7c0.3,0.3,0.6,0.5,0.9,0.8L412,154c-0.5-0.5-1-0.9-1.6-1.3
	c-0.6-0.4-1.3-0.5-2.1-0.5c-0.6,0-1.2,0.1-1.7,0.4c-0.5,0.2-1,0.6-1.4,1s-0.7,0.9-0.9,1.5c-0.2,0.6-0.3,1.2-0.3,1.8s0.1,1.3,0.3,1.8
	c0.2,0.6,0.5,1.1,0.9,1.5s0.9,0.8,1.4,1s1.1,0.4,1.8,0.4c0.8,0,1.5-0.2,2.1-0.5s1.1-0.8,1.6-1.3l1.1,1.1
	C412.5,161.3,411.8,161.8,411.1,162.3z"/>
<path class="st2" d="M421.8,163c-0.5,1.2-1.1,2.1-1.7,2.6s-1.4,0.8-2.3,0.8c-0.5,0-0.9,0-1.3-0.2c-0.4-0.1-0.8-0.3-1.2-0.5l0.6-1.4
	c0.3,0.2,0.6,0.3,0.9,0.3c0.3,0.1,0.6,0.1,1,0.1c0.5,0,1-0.2,1.4-0.5s0.7-0.9,1.1-1.8l-5.5-12h2l4.4,10l3.9-10h1.9L421.8,163z"/>
<path class="st2" d="M448.6,163l-2.6-2.6c-0.7,0.8-1.6,1.4-2.4,1.9c-0.9,0.4-1.8,0.7-2.9,0.7c-0.7,0-1.4-0.1-2-0.3s-1.2-0.5-1.6-0.9
	c-0.5-0.4-0.8-0.9-1.1-1.4c-0.3-0.6-0.4-1.2-0.4-1.9c0-1.1,0.3-2,1-2.8s1.6-1.4,2.9-1.9c-0.6-0.6-1-1.2-1.2-1.8
	c-0.3-0.5-0.4-1.1-0.4-1.8c0-0.5,0.1-1,0.3-1.5c0.2-0.5,0.5-0.9,0.9-1.2s0.8-0.6,1.3-0.8s1.1-0.3,1.8-0.3c0.6,0,1.1,0.1,1.6,0.3
	s0.9,0.5,1.2,0.8c0.3,0.3,0.6,0.7,0.8,1.2c0.2,0.4,0.3,0.9,0.3,1.4c0,1.1-0.3,1.9-1,2.6c-0.7,0.7-1.6,1.2-2.8,1.6l3.7,3.8
	c0.4-0.5,0.7-1.1,1-1.7c0.3-0.6,0.6-1.2,0.9-1.9l1.5,0.7c-0.4,0.8-0.7,1.5-1.1,2.2s-0.8,1.3-1.2,1.9l2.8,2.9L448.6,163z
	 M440.6,154.7c-1.1,0.4-1.9,0.9-2.4,1.5s-0.7,1.3-0.7,2c0,0.4,0.1,0.9,0.2,1.2c0.2,0.4,0.4,0.7,0.7,1c0.3,0.3,0.7,0.5,1.1,0.7
	s0.9,0.2,1.4,0.2c0.8,0,1.5-0.2,2.2-0.6c0.7-0.4,1.3-0.9,1.9-1.5L440.6,154.7z M443.8,148.3c-0.4-0.4-1-0.6-1.6-0.6
	c-0.7,0-1.3,0.2-1.8,0.7c-0.4,0.5-0.7,1-0.7,1.7c0,0.2,0,0.5,0.1,0.7s0.1,0.4,0.3,0.7c0.1,0.2,0.3,0.5,0.5,0.8s0.5,0.6,0.8,0.9
	c1-0.4,1.8-0.8,2.3-1.3s0.8-1.1,0.8-1.8C444.5,149.2,444.3,148.7,443.8,148.3z"/>
<path class="st2" d="M466.2,162.6h-1.8V148h-5.5v-1.7h12.7v1.7h-5.5L466.2,162.6L466.2,162.6z"/>
<path class="st2" d="M474.5,162.6h-1.8v-12h1.8v3.1c0.2-0.5,0.5-1,0.8-1.4s0.7-0.8,1.1-1.1s0.9-0.5,1.4-0.7s1-0.2,1.6-0.2v1.9h-0.1
	c-0.6,0-1.3,0.1-1.8,0.3c-0.6,0.2-1.1,0.6-1.5,1c-0.4,0.5-0.8,1-1,1.7c-0.3,0.7-0.4,1.5-0.4,2.4v5H474.5z"/>
<path class="st2" d="M483.9,152.3c-0.6,0.2-1.1,0.4-1.7,0.6l-0.5-1.5c0.7-0.3,1.3-0.6,2-0.7c0.7-0.2,1.5-0.3,2.3-0.3
	c1.6,0,2.9,0.4,3.8,1.2s1.3,2,1.3,3.6v7.3h-1.7v-1.8c-0.4,0.5-1,1-1.7,1.4s-1.6,0.6-2.7,0.6c-0.6,0-1.1-0.1-1.6-0.2
	c-0.5-0.2-1-0.4-1.4-0.7s-0.8-0.7-1-1.2c-0.3-0.5-0.4-1-0.4-1.6s0.1-1.2,0.4-1.7c0.2-0.5,0.6-0.9,1.1-1.2s1-0.6,1.6-0.7
	c0.6-0.2,1.3-0.3,2.1-0.3c0.8,0,1.4,0,2,0.1s1.1,0.2,1.7,0.4v-0.4c0-1.1-0.3-1.9-0.9-2.4s-1.5-0.8-2.6-0.8
	C485.2,152.1,484.5,152.1,483.9,152.3z M483.4,157.2c-0.6,0.4-0.9,1.1-0.9,1.8c0,0.4,0.1,0.7,0.2,1c0.2,0.3,0.4,0.5,0.7,0.8
	s0.6,0.4,1,0.5s0.7,0.2,1.1,0.2c0.6,0,1.1-0.1,1.6-0.2c0.5-0.2,0.9-0.4,1.3-0.7s0.6-0.6,0.9-1s0.3-0.8,0.3-1.3v-1.2
	c-0.4-0.1-1-0.2-1.5-0.3c-0.6-0.1-1.2-0.2-2-0.2C484.8,156.6,484,156.8,483.4,157.2z"/>
<path class="st2" d="M495,148v-2h2v2H495z M495.1,162.6v-12h1.8v12H495.1z"/>
<path class="st2" d="M502.9,162.6h-1.8v-12h1.8v2.1c0.4-0.6,0.9-1.2,1.6-1.7c0.6-0.5,1.5-0.7,2.5-0.7c0.7,0,1.4,0.1,1.9,0.3
	c0.6,0.2,1,0.6,1.4,1s0.7,0.9,0.9,1.5c0.2,0.6,0.3,1.2,0.3,2v7.4h-1.8v-7c0-1.1-0.3-2-0.9-2.6s-1.4-1-2.5-1c-0.5,0-1,0.1-1.4,0.3
	s-0.8,0.4-1.1,0.8c-0.3,0.3-0.6,0.7-0.8,1.2c-0.2,0.5-0.3,1-0.3,1.5v6.9H502.9z"/>
<path class="st2" d="M515.4,148v-2h2v2H515.4z M515.5,162.6v-12h1.8v12H515.5z"/>
<path class="st2" d="M523.3,162.6h-1.8v-12h1.8v2.1c0.4-0.6,0.9-1.2,1.6-1.7s1.5-0.7,2.5-0.7c0.7,0,1.4,0.1,1.9,0.3
	c0.6,0.2,1,0.6,1.4,1s0.7,0.9,0.9,1.5s0.3,1.2,0.3,2v7.4h-1.8v-7c0-1.1-0.3-2-0.9-2.6c-0.6-0.6-1.4-1-2.5-1c-0.5,0-1,0.1-1.4,0.3
	s-0.8,0.4-1.1,0.8c-0.3,0.3-0.6,0.7-0.8,1.2s-0.3,1-0.3,1.5v6.9H523.3z"/>
<path class="st2" d="M546.8,163.1c-0.3,0.7-0.7,1.3-1.2,1.8s-1.2,0.9-1.9,1.1c-0.7,0.2-1.6,0.4-2.5,0.4c-1,0-2-0.1-2.9-0.4
	c-0.9-0.3-1.8-0.7-2.6-1.3l0.8-1.4c0.7,0.5,1.4,0.9,2.2,1.1c0.8,0.3,1.6,0.4,2.4,0.4c1.3,0,2.4-0.4,3.2-1.1c0.8-0.7,1.2-1.8,1.2-3.2
	v-1.4c-0.5,0.7-1.2,1.3-1.9,1.8c-0.8,0.5-1.7,0.7-2.8,0.7c-0.7,0-1.4-0.1-2.1-0.4c-0.7-0.3-1.3-0.6-1.8-1.1s-0.9-1.1-1.3-1.8
	c-0.3-0.7-0.5-1.5-0.5-2.4s0.2-1.7,0.5-2.4s0.7-1.3,1.3-1.8c0.5-0.5,1.1-0.9,1.8-1.1c0.7-0.3,1.4-0.4,2.1-0.4c0.6,0,1.1,0.1,1.5,0.2
	c0.5,0.1,0.9,0.3,1.3,0.5c0.4,0.2,0.7,0.5,1,0.8s0.6,0.6,0.8,0.9v-2.2h1.8v9.9C547.2,161.5,547,162.4,546.8,163.1z M545.1,154.4
	c-0.2-0.5-0.6-0.9-1-1.3c-0.4-0.4-0.9-0.6-1.4-0.8s-1.1-0.3-1.6-0.3c-0.6,0-1.1,0.1-1.6,0.3s-0.9,0.5-1.3,0.8
	c-0.4,0.4-0.7,0.8-0.9,1.3s-0.3,1.1-0.3,1.7c0,0.6,0.1,1.2,0.3,1.7s0.5,0.9,0.9,1.3c0.4,0.4,0.8,0.6,1.3,0.8s1,0.3,1.6,0.3
	s1.1-0.1,1.6-0.3s1-0.5,1.4-0.8c0.4-0.4,0.7-0.8,1-1.3c0.2-0.5,0.4-1.1,0.4-1.7C545.5,155.4,545.3,154.9,545.1,154.4z"/>
</svg>
